<mxfile host="app.diagrams.net" modified="2021-01-30T11:38:52.449Z" agent="5.0 (Macintosh; Intel Mac OS X 10_15_6) AppleWebKit/605.1.15 (KHTML, like Gecko) Version/14.0.2 Safari/605.1.15" etag="WzqLHWfRHya-nN3pxqpC" version="14.2.7" type="github">
  <diagram id="I6CuVnorOdHP8k_syBgL" name="Page-1">
    <mxGraphModel dx="786" dy="1160" grid="1" gridSize="10" guides="1" tooltips="1" connect="1" arrows="1" fold="1" page="1" pageScale="1" pageWidth="827" pageHeight="1169" math="0" shadow="0">
      <root>
        <mxCell id="0" />
        <mxCell id="1" parent="0" />
        <mxCell id="r5C_3WcXiJWx9LqU8J2X-1" value="core" style="shape=folder;fontStyle=1;spacingTop=10;tabWidth=40;tabHeight=14;tabPosition=left;html=1;" vertex="1" parent="1">
          <mxGeometry x="90" y="200" width="190" height="50" as="geometry" />
        </mxCell>
        <mxCell id="r5C_3WcXiJWx9LqU8J2X-2" value="actions" style="shape=folder;fontStyle=1;spacingTop=10;tabWidth=40;tabHeight=14;tabPosition=left;html=1;" vertex="1" parent="1">
          <mxGeometry x="90" y="290" width="190" height="50" as="geometry" />
        </mxCell>
        <mxCell id="r5C_3WcXiJWx9LqU8J2X-3" value="components" style="shape=folder;fontStyle=1;spacingTop=10;tabWidth=40;tabHeight=14;tabPosition=left;html=1;" vertex="1" parent="1">
          <mxGeometry x="90" y="380" width="190" height="50" as="geometry" />
        </mxCell>
        <mxCell id="r5C_3WcXiJWx9LqU8J2X-4" value="containter" style="shape=folder;fontStyle=1;spacingTop=10;tabWidth=40;tabHeight=14;tabPosition=left;html=1;" vertex="1" parent="1">
          <mxGeometry x="90" y="480" width="190" height="50" as="geometry" />
        </mxCell>
      </root>
    </mxGraphModel>
  </diagram>
</mxfile>
